<mxfile host="app.diagrams.net" agent="Mozilla/5.0 (Windows NT 10.0; Win64; x64) AppleWebKit/537.36 (KHTML, like Gecko) Chrome/134.0.0.0 Safari/537.36 Edg/134.0.0.0" version="26.0.13">
  <diagram name="Page-1" id="srw591ODIMApiGd6tWxh">
    <mxGraphModel dx="1901" dy="1041" grid="1" gridSize="10" guides="1" tooltips="1" connect="1" arrows="1" fold="1" page="1" pageScale="1" pageWidth="3300" pageHeight="4681" math="0" shadow="0">
      <root>
        <mxCell id="0" />
        <mxCell id="1" parent="0" />
        <mxCell id="qphJMw4fm7bEAh2My72D-51" style="edgeStyle=orthogonalEdgeStyle;rounded=0;orthogonalLoop=1;jettySize=auto;html=1;exitX=0.5;exitY=1;exitDx=0;exitDy=0;entryX=0.5;entryY=0;entryDx=0;entryDy=0;" edge="1" parent="1" source="qphJMw4fm7bEAh2My72D-44" target="qphJMw4fm7bEAh2My72D-46">
          <mxGeometry relative="1" as="geometry" />
        </mxCell>
        <mxCell id="qphJMw4fm7bEAh2My72D-44" value="" style="rounded=0;whiteSpace=wrap;html=1;" vertex="1" parent="1">
          <mxGeometry x="170" y="470" width="230" height="60" as="geometry" />
        </mxCell>
        <mxCell id="qphJMw4fm7bEAh2My72D-50" style="edgeStyle=orthogonalEdgeStyle;rounded=0;orthogonalLoop=1;jettySize=auto;html=1;exitX=0.5;exitY=1;exitDx=0;exitDy=0;entryX=0.5;entryY=0;entryDx=0;entryDy=0;" edge="1" parent="1" source="qphJMw4fm7bEAh2My72D-42" target="qphJMw4fm7bEAh2My72D-44">
          <mxGeometry relative="1" as="geometry" />
        </mxCell>
        <mxCell id="qphJMw4fm7bEAh2My72D-42" value="" style="rounded=0;whiteSpace=wrap;html=1;" vertex="1" parent="1">
          <mxGeometry x="170" y="380" width="230" height="60" as="geometry" />
        </mxCell>
        <mxCell id="qphJMw4fm7bEAh2My72D-3" style="edgeStyle=orthogonalEdgeStyle;rounded=0;orthogonalLoop=1;jettySize=auto;html=1;exitX=0.5;exitY=1;exitDx=0;exitDy=0;entryX=0.5;entryY=0;entryDx=0;entryDy=0;" edge="1" parent="1" source="qphJMw4fm7bEAh2My72D-1" target="qphJMw4fm7bEAh2My72D-2">
          <mxGeometry relative="1" as="geometry" />
        </mxCell>
        <mxCell id="qphJMw4fm7bEAh2My72D-1" value="设备描述符" style="rounded=0;whiteSpace=wrap;html=1;" vertex="1" parent="1">
          <mxGeometry x="520" y="100" width="80" height="40" as="geometry" />
        </mxCell>
        <mxCell id="qphJMw4fm7bEAh2My72D-5" style="edgeStyle=orthogonalEdgeStyle;rounded=0;orthogonalLoop=1;jettySize=auto;html=1;exitX=0.5;exitY=1;exitDx=0;exitDy=0;entryX=0.5;entryY=0;entryDx=0;entryDy=0;" edge="1" parent="1" source="qphJMw4fm7bEAh2My72D-2" target="qphJMw4fm7bEAh2My72D-4">
          <mxGeometry relative="1" as="geometry" />
        </mxCell>
        <mxCell id="qphJMw4fm7bEAh2My72D-2" value="配置描述符" style="rounded=0;whiteSpace=wrap;html=1;" vertex="1" parent="1">
          <mxGeometry x="520" y="160" width="80" height="40" as="geometry" />
        </mxCell>
        <mxCell id="qphJMw4fm7bEAh2My72D-9" style="edgeStyle=orthogonalEdgeStyle;rounded=0;orthogonalLoop=1;jettySize=auto;html=1;exitX=0.5;exitY=1;exitDx=0;exitDy=0;entryX=0.5;entryY=0;entryDx=0;entryDy=0;" edge="1" parent="1" source="qphJMw4fm7bEAh2My72D-4" target="qphJMw4fm7bEAh2My72D-6">
          <mxGeometry relative="1" as="geometry" />
        </mxCell>
        <mxCell id="qphJMw4fm7bEAh2My72D-10" style="edgeStyle=orthogonalEdgeStyle;rounded=0;orthogonalLoop=1;jettySize=auto;html=1;exitX=0.5;exitY=1;exitDx=0;exitDy=0;entryX=0.5;entryY=0;entryDx=0;entryDy=0;" edge="1" parent="1" source="qphJMw4fm7bEAh2My72D-4" target="qphJMw4fm7bEAh2My72D-7">
          <mxGeometry relative="1" as="geometry" />
        </mxCell>
        <mxCell id="qphJMw4fm7bEAh2My72D-16" style="edgeStyle=orthogonalEdgeStyle;rounded=0;orthogonalLoop=1;jettySize=auto;html=1;exitX=0.5;exitY=1;exitDx=0;exitDy=0;entryX=0.5;entryY=0;entryDx=0;entryDy=0;" edge="1" parent="1" source="qphJMw4fm7bEAh2My72D-4" target="qphJMw4fm7bEAh2My72D-15">
          <mxGeometry relative="1" as="geometry" />
        </mxCell>
        <mxCell id="qphJMw4fm7bEAh2My72D-4" value="接口聚合&lt;div&gt;描述符&lt;/div&gt;" style="rounded=0;whiteSpace=wrap;html=1;" vertex="1" parent="1">
          <mxGeometry x="520" y="220" width="80" height="40" as="geometry" />
        </mxCell>
        <mxCell id="qphJMw4fm7bEAh2My72D-43" style="edgeStyle=orthogonalEdgeStyle;rounded=0;orthogonalLoop=1;jettySize=auto;html=1;exitX=0.5;exitY=1;exitDx=0;exitDy=0;entryX=0.5;entryY=0;entryDx=0;entryDy=0;" edge="1" parent="1" source="qphJMw4fm7bEAh2My72D-6" target="qphJMw4fm7bEAh2My72D-42">
          <mxGeometry relative="1" as="geometry" />
        </mxCell>
        <mxCell id="qphJMw4fm7bEAh2My72D-65" style="edgeStyle=orthogonalEdgeStyle;rounded=0;orthogonalLoop=1;jettySize=auto;html=1;exitX=0.5;exitY=1;exitDx=0;exitDy=0;entryX=0.5;entryY=0;entryDx=0;entryDy=0;" edge="1" parent="1" source="qphJMw4fm7bEAh2My72D-6" target="qphJMw4fm7bEAh2My72D-64">
          <mxGeometry relative="1" as="geometry" />
        </mxCell>
        <mxCell id="qphJMw4fm7bEAh2My72D-6" value="视频控制接口&lt;div&gt;(0-0)&lt;/div&gt;" style="rounded=0;whiteSpace=wrap;html=1;" vertex="1" parent="1">
          <mxGeometry x="370" y="300" width="80" height="40" as="geometry" />
        </mxCell>
        <mxCell id="qphJMw4fm7bEAh2My72D-76" style="edgeStyle=orthogonalEdgeStyle;rounded=0;orthogonalLoop=1;jettySize=auto;html=1;exitX=0.5;exitY=1;exitDx=0;exitDy=0;entryX=0.5;entryY=0;entryDx=0;entryDy=0;" edge="1" parent="1" source="qphJMw4fm7bEAh2My72D-7">
          <mxGeometry relative="1" as="geometry">
            <mxPoint x="580" y="400" as="targetPoint" />
          </mxGeometry>
        </mxCell>
        <mxCell id="qphJMw4fm7bEAh2My72D-92" style="edgeStyle=orthogonalEdgeStyle;rounded=0;orthogonalLoop=1;jettySize=auto;html=1;exitX=0.5;exitY=1;exitDx=0;exitDy=0;" edge="1" parent="1" source="qphJMw4fm7bEAh2My72D-7">
          <mxGeometry relative="1" as="geometry">
            <mxPoint x="740" y="690" as="targetPoint" />
            <Array as="points">
              <mxPoint x="580" y="360" />
              <mxPoint x="741" y="360" />
              <mxPoint x="741" y="690" />
            </Array>
          </mxGeometry>
        </mxCell>
        <mxCell id="qphJMw4fm7bEAh2My72D-96" style="edgeStyle=orthogonalEdgeStyle;rounded=0;orthogonalLoop=1;jettySize=auto;html=1;exitX=0.5;exitY=1;exitDx=0;exitDy=0;entryX=0.5;entryY=0;entryDx=0;entryDy=0;" edge="1" parent="1" source="qphJMw4fm7bEAh2My72D-7" target="qphJMw4fm7bEAh2My72D-95">
          <mxGeometry relative="1" as="geometry">
            <Array as="points">
              <mxPoint x="580" y="360" />
              <mxPoint x="740" y="360" />
              <mxPoint x="740" y="535" />
              <mxPoint x="790" y="535" />
            </Array>
          </mxGeometry>
        </mxCell>
        <mxCell id="qphJMw4fm7bEAh2My72D-7" value="视频格式接口&lt;div&gt;(1-0)&lt;/div&gt;" style="rounded=0;whiteSpace=wrap;html=1;" vertex="1" parent="1">
          <mxGeometry x="540" y="300" width="80" height="40" as="geometry" />
        </mxCell>
        <mxCell id="qphJMw4fm7bEAh2My72D-97" style="edgeStyle=orthogonalEdgeStyle;rounded=0;orthogonalLoop=1;jettySize=auto;html=1;exitX=0.5;exitY=1;exitDx=0;exitDy=0;entryX=0;entryY=0.5;entryDx=0;entryDy=0;" edge="1" parent="1" source="qphJMw4fm7bEAh2My72D-15" target="qphJMw4fm7bEAh2My72D-67">
          <mxGeometry relative="1" as="geometry" />
        </mxCell>
        <mxCell id="qphJMw4fm7bEAh2My72D-98" style="edgeStyle=orthogonalEdgeStyle;rounded=0;orthogonalLoop=1;jettySize=auto;html=1;exitX=0.5;exitY=1;exitDx=0;exitDy=0;entryX=0;entryY=0.5;entryDx=0;entryDy=0;" edge="1" parent="1" source="qphJMw4fm7bEAh2My72D-15" target="qphJMw4fm7bEAh2My72D-68">
          <mxGeometry relative="1" as="geometry" />
        </mxCell>
        <mxCell id="qphJMw4fm7bEAh2My72D-15" value="视频流&lt;div&gt;端点接口&lt;br&gt;&lt;div&gt;(1-n)&lt;/div&gt;&lt;/div&gt;" style="rounded=0;whiteSpace=wrap;html=1;" vertex="1" parent="1">
          <mxGeometry x="760" y="300" width="80" height="50" as="geometry" />
        </mxCell>
        <mxCell id="qphJMw4fm7bEAh2My72D-17" value="输入节点1&lt;div&gt;描述符&lt;/div&gt;" style="rounded=0;whiteSpace=wrap;html=1;" vertex="1" parent="1">
          <mxGeometry x="300" y="390" width="80" height="40" as="geometry" />
        </mxCell>
        <mxCell id="qphJMw4fm7bEAh2My72D-18" value="处理单元1&lt;div&gt;描述符&lt;/div&gt;" style="rounded=0;whiteSpace=wrap;html=1;" vertex="1" parent="1">
          <mxGeometry x="180" y="480" width="80" height="40" as="geometry" />
        </mxCell>
        <mxCell id="qphJMw4fm7bEAh2My72D-30" value="处理单元n&lt;div&gt;描述符&lt;/div&gt;" style="rounded=0;whiteSpace=wrap;html=1;" vertex="1" parent="1">
          <mxGeometry x="300" y="480" width="80" height="40" as="geometry" />
        </mxCell>
        <mxCell id="qphJMw4fm7bEAh2My72D-31" value="输入节点n&lt;div&gt;描述符&lt;/div&gt;" style="rounded=0;whiteSpace=wrap;html=1;" vertex="1" parent="1">
          <mxGeometry x="180" y="390" width="80" height="40" as="geometry" />
        </mxCell>
        <mxCell id="qphJMw4fm7bEAh2My72D-32" value="" style="endArrow=none;dashed=1;html=1;dashPattern=1 3;strokeWidth=2;rounded=0;" edge="1" parent="1">
          <mxGeometry width="50" height="50" relative="1" as="geometry">
            <mxPoint x="270" y="409.8" as="sourcePoint" />
            <mxPoint x="300" y="409.8" as="targetPoint" />
          </mxGeometry>
        </mxCell>
        <mxCell id="qphJMw4fm7bEAh2My72D-45" value="" style="endArrow=none;dashed=1;html=1;dashPattern=1 3;strokeWidth=2;rounded=0;" edge="1" parent="1">
          <mxGeometry width="50" height="50" relative="1" as="geometry">
            <mxPoint x="270" y="499.8" as="sourcePoint" />
            <mxPoint x="300" y="499.8" as="targetPoint" />
          </mxGeometry>
        </mxCell>
        <mxCell id="qphJMw4fm7bEAh2My72D-57" style="edgeStyle=orthogonalEdgeStyle;rounded=0;orthogonalLoop=1;jettySize=auto;html=1;exitX=0.5;exitY=1;exitDx=0;exitDy=0;entryX=0.5;entryY=0;entryDx=0;entryDy=0;" edge="1" parent="1" source="qphJMw4fm7bEAh2My72D-46" target="qphJMw4fm7bEAh2My72D-53">
          <mxGeometry relative="1" as="geometry" />
        </mxCell>
        <mxCell id="qphJMw4fm7bEAh2My72D-46" value="" style="rounded=0;whiteSpace=wrap;html=1;" vertex="1" parent="1">
          <mxGeometry x="170" y="560" width="230" height="60" as="geometry" />
        </mxCell>
        <mxCell id="qphJMw4fm7bEAh2My72D-47" value="处理单元1&lt;div&gt;描述符&lt;/div&gt;" style="rounded=0;whiteSpace=wrap;html=1;" vertex="1" parent="1">
          <mxGeometry x="180" y="570" width="80" height="40" as="geometry" />
        </mxCell>
        <mxCell id="qphJMw4fm7bEAh2My72D-48" value="处理单元n&lt;div&gt;描述符&lt;/div&gt;" style="rounded=0;whiteSpace=wrap;html=1;" vertex="1" parent="1">
          <mxGeometry x="300" y="570" width="80" height="40" as="geometry" />
        </mxCell>
        <mxCell id="qphJMw4fm7bEAh2My72D-49" value="" style="endArrow=none;dashed=1;html=1;dashPattern=1 3;strokeWidth=2;rounded=0;" edge="1" parent="1">
          <mxGeometry width="50" height="50" relative="1" as="geometry">
            <mxPoint x="270" y="589.8" as="sourcePoint" />
            <mxPoint x="300" y="589.8" as="targetPoint" />
          </mxGeometry>
        </mxCell>
        <mxCell id="qphJMw4fm7bEAh2My72D-62" style="edgeStyle=orthogonalEdgeStyle;rounded=0;orthogonalLoop=1;jettySize=auto;html=1;exitX=0.5;exitY=1;exitDx=0;exitDy=0;entryX=0.5;entryY=0;entryDx=0;entryDy=0;" edge="1" parent="1" source="qphJMw4fm7bEAh2My72D-53" target="qphJMw4fm7bEAh2My72D-58">
          <mxGeometry relative="1" as="geometry" />
        </mxCell>
        <mxCell id="qphJMw4fm7bEAh2My72D-53" value="" style="rounded=0;whiteSpace=wrap;html=1;" vertex="1" parent="1">
          <mxGeometry x="170" y="650" width="230" height="60" as="geometry" />
        </mxCell>
        <mxCell id="qphJMw4fm7bEAh2My72D-54" value="编码单元1&lt;div&gt;描述符&lt;/div&gt;" style="rounded=0;whiteSpace=wrap;html=1;" vertex="1" parent="1">
          <mxGeometry x="180" y="660" width="80" height="40" as="geometry" />
        </mxCell>
        <mxCell id="qphJMw4fm7bEAh2My72D-55" value="编码单元n&lt;div&gt;描述符&lt;/div&gt;" style="rounded=0;whiteSpace=wrap;html=1;" vertex="1" parent="1">
          <mxGeometry x="300" y="660" width="80" height="40" as="geometry" />
        </mxCell>
        <mxCell id="qphJMw4fm7bEAh2My72D-56" value="" style="endArrow=none;dashed=1;html=1;dashPattern=1 3;strokeWidth=2;rounded=0;" edge="1" parent="1">
          <mxGeometry width="50" height="50" relative="1" as="geometry">
            <mxPoint x="270" y="679.8" as="sourcePoint" />
            <mxPoint x="300" y="679.8" as="targetPoint" />
          </mxGeometry>
        </mxCell>
        <mxCell id="qphJMw4fm7bEAh2My72D-58" value="" style="rounded=0;whiteSpace=wrap;html=1;" vertex="1" parent="1">
          <mxGeometry x="170" y="740" width="230" height="60" as="geometry" />
        </mxCell>
        <mxCell id="qphJMw4fm7bEAh2My72D-59" value="输出节点1&lt;div&gt;描述符&lt;/div&gt;" style="rounded=0;whiteSpace=wrap;html=1;" vertex="1" parent="1">
          <mxGeometry x="180" y="750" width="80" height="40" as="geometry" />
        </mxCell>
        <mxCell id="qphJMw4fm7bEAh2My72D-60" value="输出节点n&lt;div&gt;描述符&lt;/div&gt;" style="rounded=0;whiteSpace=wrap;html=1;" vertex="1" parent="1">
          <mxGeometry x="300" y="750" width="80" height="40" as="geometry" />
        </mxCell>
        <mxCell id="qphJMw4fm7bEAh2My72D-61" value="" style="endArrow=none;dashed=1;html=1;dashPattern=1 3;strokeWidth=2;rounded=0;" edge="1" parent="1">
          <mxGeometry width="50" height="50" relative="1" as="geometry">
            <mxPoint x="270" y="769.8" as="sourcePoint" />
            <mxPoint x="300" y="769.8" as="targetPoint" />
          </mxGeometry>
        </mxCell>
        <mxCell id="qphJMw4fm7bEAh2My72D-64" value="Interrupt端点&lt;div&gt;描述符&lt;/div&gt;" style="rounded=0;whiteSpace=wrap;html=1;" vertex="1" parent="1">
          <mxGeometry x="370" y="810" width="80" height="40" as="geometry" />
        </mxCell>
        <mxCell id="qphJMw4fm7bEAh2My72D-67" value="Isoch端点&lt;div&gt;描述符&lt;/div&gt;" style="rounded=0;whiteSpace=wrap;html=1;" vertex="1" parent="1">
          <mxGeometry x="840" y="460" width="80" height="40" as="geometry" />
        </mxCell>
        <mxCell id="qphJMw4fm7bEAh2My72D-68" value="Bulk端点&lt;div&gt;描述符&lt;/div&gt;" style="rounded=0;whiteSpace=wrap;html=1;" vertex="1" parent="1">
          <mxGeometry x="840" y="520" width="80" height="40" as="geometry" />
        </mxCell>
        <mxCell id="qphJMw4fm7bEAh2My72D-82" style="edgeStyle=orthogonalEdgeStyle;rounded=0;orthogonalLoop=1;jettySize=auto;html=1;exitX=0.5;exitY=1;exitDx=0;exitDy=0;entryX=0.5;entryY=0;entryDx=0;entryDy=0;" edge="1" parent="1" target="qphJMw4fm7bEAh2My72D-78">
          <mxGeometry relative="1" as="geometry">
            <mxPoint x="580" y="440" as="sourcePoint" />
          </mxGeometry>
        </mxCell>
        <mxCell id="qphJMw4fm7bEAh2My72D-87" style="edgeStyle=orthogonalEdgeStyle;rounded=0;orthogonalLoop=1;jettySize=auto;html=1;exitX=0.5;exitY=1;exitDx=0;exitDy=0;" edge="1" parent="1" source="qphJMw4fm7bEAh2My72D-78" target="qphJMw4fm7bEAh2My72D-83">
          <mxGeometry relative="1" as="geometry" />
        </mxCell>
        <mxCell id="qphJMw4fm7bEAh2My72D-78" value="" style="rounded=0;whiteSpace=wrap;html=1;" vertex="1" parent="1">
          <mxGeometry x="465" y="500" width="230" height="60" as="geometry" />
        </mxCell>
        <mxCell id="qphJMw4fm7bEAh2My72D-79" value="视频帧格式1&lt;div&gt;描述符&lt;/div&gt;" style="rounded=0;whiteSpace=wrap;html=1;" vertex="1" parent="1">
          <mxGeometry x="475" y="510" width="80" height="40" as="geometry" />
        </mxCell>
        <mxCell id="qphJMw4fm7bEAh2My72D-80" value="视频帧格式n&lt;div&gt;描述符&lt;/div&gt;" style="rounded=0;whiteSpace=wrap;html=1;" vertex="1" parent="1">
          <mxGeometry x="595" y="510" width="80" height="40" as="geometry" />
        </mxCell>
        <mxCell id="qphJMw4fm7bEAh2My72D-81" value="" style="endArrow=none;dashed=1;html=1;dashPattern=1 3;strokeWidth=2;rounded=0;" edge="1" parent="1">
          <mxGeometry width="50" height="50" relative="1" as="geometry">
            <mxPoint x="565" y="529.8" as="sourcePoint" />
            <mxPoint x="595" y="529.8" as="targetPoint" />
          </mxGeometry>
        </mxCell>
        <mxCell id="qphJMw4fm7bEAh2My72D-83" value="" style="rounded=0;whiteSpace=wrap;html=1;" vertex="1" parent="1">
          <mxGeometry x="465" y="590" width="230" height="60" as="geometry" />
        </mxCell>
        <mxCell id="qphJMw4fm7bEAh2My72D-84" value="关键帧格式1&lt;div&gt;描述符&lt;/div&gt;" style="rounded=0;whiteSpace=wrap;html=1;" vertex="1" parent="1">
          <mxGeometry x="475" y="600" width="80" height="40" as="geometry" />
        </mxCell>
        <mxCell id="qphJMw4fm7bEAh2My72D-85" value="关键帧格式n&lt;div&gt;描述符&lt;/div&gt;" style="rounded=0;whiteSpace=wrap;html=1;" vertex="1" parent="1">
          <mxGeometry x="595" y="600" width="80" height="40" as="geometry" />
        </mxCell>
        <mxCell id="qphJMw4fm7bEAh2My72D-86" value="" style="endArrow=none;dashed=1;html=1;dashPattern=1 3;strokeWidth=2;rounded=0;" edge="1" parent="1">
          <mxGeometry width="50" height="50" relative="1" as="geometry">
            <mxPoint x="565" y="619.8" as="sourcePoint" />
            <mxPoint x="595" y="619.8" as="targetPoint" />
          </mxGeometry>
        </mxCell>
        <mxCell id="qphJMw4fm7bEAh2My72D-88" value="" style="rounded=0;whiteSpace=wrap;html=1;" vertex="1" parent="1">
          <mxGeometry x="465" y="400" width="230" height="60" as="geometry" />
        </mxCell>
        <mxCell id="qphJMw4fm7bEAh2My72D-89" value="视频格式1&lt;div&gt;描述符&lt;/div&gt;" style="rounded=0;whiteSpace=wrap;html=1;" vertex="1" parent="1">
          <mxGeometry x="475" y="410" width="80" height="40" as="geometry" />
        </mxCell>
        <mxCell id="qphJMw4fm7bEAh2My72D-90" value="视频格式n&lt;div&gt;描述符&lt;/div&gt;" style="rounded=0;whiteSpace=wrap;html=1;" vertex="1" parent="1">
          <mxGeometry x="595" y="410" width="80" height="40" as="geometry" />
        </mxCell>
        <mxCell id="qphJMw4fm7bEAh2My72D-91" value="" style="endArrow=none;dashed=1;html=1;dashPattern=1 3;strokeWidth=2;rounded=0;" edge="1" parent="1">
          <mxGeometry width="50" height="50" relative="1" as="geometry">
            <mxPoint x="565" y="429.79999999999995" as="sourcePoint" />
            <mxPoint x="595" y="429.79999999999995" as="targetPoint" />
          </mxGeometry>
        </mxCell>
        <mxCell id="qphJMw4fm7bEAh2My72D-93" value="色彩格式&lt;div&gt;描述符&lt;/div&gt;" style="rounded=0;whiteSpace=wrap;html=1;" vertex="1" parent="1">
          <mxGeometry x="700" y="690" width="80" height="40" as="geometry" />
        </mxCell>
        <mxCell id="qphJMw4fm7bEAh2My72D-95" value="关键帧&lt;div&gt;Bulk端点&lt;div&gt;描述符&lt;/div&gt;&lt;/div&gt;" style="rounded=0;whiteSpace=wrap;html=1;" vertex="1" parent="1">
          <mxGeometry x="740" y="750" width="100" height="60" as="geometry" />
        </mxCell>
      </root>
    </mxGraphModel>
  </diagram>
</mxfile>
